<?xml version="1.0" encoding="iso-8859-1"?>
<!-- Generator: Adobe Illustrator 19.0.0, SVG Export Plug-In . SVG Version: 6.00 Build 0)  -->
<svg version="1.1" id="Layer_1" xmlns="http://www.w3.org/2000/svg" xmlns:xlink="http://www.w3.org/1999/xlink" x="0px" y="0px"
	 viewBox="0 0 512.001 512.001" style="enable-background:new 0 0 512.001 512.001;" xml:space="preserve">
<path style="fill:#F7B239;" d="M346.199,70.151c71.103,0,61.614,77.228,61.614,77.228v0.013c-4.255,0.527-8.598,0.803-13.016,0.803
	c-57.485,0-104.088-46.591-104.088-104.076c0-3.188,0.138-6.338,0.427-9.451h0.013c7.895,1.657,15.714,4.418,23.233,8.309
	C327.384,49.692,338.091,59.093,346.199,70.151z"/>
<path style="fill:#F2F2F2;" d="M302.483,391.992c7.807,9.288,6.765,21.538,0.301,29.822c-0.088-0.138-0.201-0.264-0.314-0.389
	c-11.133-13.229-27.814-21.638-46.465-21.638c-18.651,0-35.345,8.409-46.478,21.638c-0.1,0.126-0.213,0.238-0.314,0.377
	c-6.451-8.284-7.493-20.534,0.314-29.809c11.146-13.229,27.826-21.638,46.478-21.638
	C274.656,370.353,291.337,378.763,302.483,391.992z"/>
<g>
	<path style="fill:#90BC42;" d="M429.891,231.95c22.668,6.702,39.21,27.701,39.21,52.54c0,24.914-16.63,45.963-39.411,52.603
		c0.138-2.786,0.201-5.585,0.201-8.397V284.49V231.95z"/>
	<path style="fill:#90BC42;" d="M82.32,337.092h-0.013c-22.768-6.64-39.411-27.688-39.411-52.603
		c0-24.839,16.543-45.837,39.223-52.54v52.54v44.206C82.119,331.507,82.182,334.306,82.32,337.092z"/>
</g>
<path style="fill:#F95428;" d="M302.47,421.425c0.113,0.126,0.226,0.251,0.314,0.389c-4.28,5.497-10.945,9.25-18.978,9.25h-55.602
	c-8.045,0-14.71-3.765-18.99-9.263c0.1-0.138,0.213-0.251,0.314-0.377c11.133-13.229,27.826-21.638,46.478-21.638
	S291.337,408.196,302.47,421.425z"/>
<path style="fill:#F7B239;" d="M373.172,272.616c11.221,0,17.911,12.777,11.259,21.814c-6.702,9.075-17.471,14.961-29.621,14.961
	c-20.308,0-36.775-16.467-36.775-36.775H373.172z"/>
<path style="fill:#9AD14B;" d="M283.806,431.064c8.033,0,14.698-3.753,18.978-9.25c6.464-8.284,7.506-20.534-0.301-29.822
	c-11.146-13.229-27.826-21.638-46.478-21.638s-35.332,8.409-46.478,21.638c-7.807,9.275-6.765,21.526-0.314,29.809
	c4.28,5.497,10.945,9.263,18.99,9.263H283.806z M318.034,272.616c0,20.308,16.467,36.775,36.775,36.775
	c12.15,0,22.919-5.887,29.621-14.961c6.652-9.037-0.038-21.814-11.259-21.814H318.034z M193.976,272.616h-55.138
	c-11.221,0-17.911,12.777-11.259,21.814c6.702,9.075,17.471,14.961,29.621,14.961C177.509,309.391,193.976,292.924,193.976,272.616z
	 M429.891,284.49v44.206c0,2.811-0.063,5.61-0.201,8.397c-2.673,56.155-31.981,105.343-75.559,135.178
	c-0.377,0.276-0.766,0.527-1.142,0.791c-27.701,18.639-61.062,29.521-96.984,29.521s-69.283-10.882-96.984-29.521
	c-0.377-0.264-0.766-0.515-1.142-0.791c-43.578-29.834-72.886-79.023-75.559-135.178c-0.138-2.786-0.201-5.585-0.201-8.397V284.49
	v-52.54v-48.649c0-48.009,19.467-91.487,50.933-122.953S207.984,9.415,256.005,9.415c13.48,0,26.596,1.531,39.185,4.431
	c-2.021,6.677-3.401,13.643-4.054,20.823c-0.289,3.113-0.427,6.263-0.427,9.451c0,57.485,46.603,104.076,104.088,104.076
	c4.418,0,8.761-0.276,13.016-0.803c6.012-0.753,11.874-2.021,17.534-3.753c2.962,12.74,4.544,26.019,4.544,39.662v48.649V284.49z"/>
<path style="fill:#90BC42;" d="M223.029,473.061c-0.377-0.264-0.766-0.515-1.142-0.791c-43.578-29.834-72.886-79.023-75.559-135.178
	c-0.138-2.786-0.201-5.585-0.201-8.397V284.49v-52.54v-48.649c0-48.009,19.467-91.487,50.933-122.953
	C221.36,36.049,252.817,18.916,288,12.367c-10.37-1.928-21.06-2.952-31.995-2.952c-48.021,0-91.487,19.467-122.953,50.933
	s-50.933,74.944-50.933,122.953v48.649v52.54v44.206c0,2.811,0.063,5.61,0.201,8.397c2.673,56.155,31.981,105.343,75.559,135.178
	c0.377,0.276,0.766,0.527,1.142,0.791c27.701,18.639,61.062,29.521,96.984,29.521c10.936,0,21.63-1.022,32.005-2.951
	C264.308,495.224,242.296,486.025,223.029,473.061z"/>
<path style="fill:#F7B239;" d="M138.838,272.616h55.138c0,20.308-16.467,36.775-36.775,36.775c-12.15,0-22.919-5.887-29.621-14.961
	C120.928,285.393,127.618,272.616,138.838,272.616z"/>
<g>
	<path style="fill:#333333;" d="M478.52,284.49c0-25.838-15.813-49.211-39.214-59.136v-42.052c0-14.104-1.614-28.169-4.796-41.806
		c-0.592-2.539-2.213-4.719-4.473-6.02c-2.259-1.3-4.959-1.604-7.453-0.84c-1.642,0.503-3.3,0.945-4.965,1.358
		c-0.313-14.04-3.403-37.014-18.477-54.054c-11.584-13.094-27.826-20.172-48.316-21.089c-8.721-10.775-19.625-19.777-32.114-26.239
		c-5.521-2.857-11.262-5.177-17.141-6.965c0.658-3.734,1.527-7.429,2.631-11.067c0.758-2.496,0.446-5.194-0.862-7.452
		c-1.307-2.257-3.492-3.871-6.033-4.456C283.838,1.573,269.941,0,256.004,0C154.932,0,72.703,82.229,72.703,183.301v42.049
		c-23.406,9.923-39.222,33.299-39.222,59.139c0,26.102,16.1,49.641,39.869,59.408c4.54,54.652,33.371,104.704,79.101,136.064
		c0.321,0.232,0.65,0.456,0.974,0.675l0.338,0.228c30.264,20.37,65.618,31.136,102.241,31.136s71.977-10.767,102.296-31.174
		l0.271-0.183c0.329-0.221,0.66-0.447,0.985-0.682c45.729-31.361,74.562-81.414,79.101-136.068
		C462.424,334.125,478.52,310.589,478.52,284.49z M351.405,101.869c1.181,4.134,4.949,6.83,9.047,6.83
		c0.856,0,1.726-0.118,2.591-0.365c4.999-1.428,7.894-6.638,6.465-11.636c-1.474-5.157-3.362-10.158-5.613-14.969
		c8.633,2.333,15.693,6.547,21.087,12.618c12.051,13.562,13.833,33.565,13.82,44.348c-1.334,0.056-2.67,0.092-4.009,0.092
		c-51.228,0-93.054-40.907-94.598-91.768c3.36,1.219,6.656,2.656,9.864,4.316C330.422,61.867,345.104,79.814,351.405,101.869z
		 M52.308,284.49c0-15.419,7.965-29.595,20.395-37.857v75.715C60.271,314.087,52.308,299.923,52.308,284.49z M420.479,328.699
		c0,54.308-26.792,105.076-71.669,135.803c-0.088,0.06-0.174,0.122-0.26,0.185c-0.162,0.121-0.334,0.232-0.5,0.344l-0.318,0.215
		c-27.146,18.271-58.864,27.928-91.729,27.928c-32.863,0-64.583-9.657-91.666-27.885l-0.385-0.261
		c-0.164-0.112-0.334-0.222-0.495-0.34c-0.085-0.063-0.172-0.124-0.26-0.185c-44.876-30.727-71.669-81.495-71.669-135.803V183.301
		C91.53,92.61,165.313,18.827,256.005,18.827c9.28,0,18.54,0.776,27.632,2.312c-1.555,7.542-2.341,15.235-2.341,22.975
		c0,62.583,50.916,113.499,113.499,113.499c7.856,0,15.654-0.806,23.292-2.402c1.59,9.245,2.394,18.658,2.394,28.09v145.398H420.479
		z M439.306,322.342v-75.705c12.425,8.264,20.387,22.435,20.387,37.852C459.693,299.92,451.734,314.081,439.306,322.342z"/>
	<path style="fill:#333333;" d="M373.168,263.198h-55.135h-33.945c-5.199,0-9.413,4.215-9.413,9.413s4.215,9.414,9.413,9.414h24.785
		c1.457,19.02,9.681,60.241,52.561,79.465c1.25,0.561,2.558,0.826,3.844,0.826c3.596,0,7.03-2.072,8.595-5.565
		c2.126-4.744,0.005-10.313-4.739-12.441c-15.531-6.962-25.281-17.727-31.42-28.799c5.292,2.117,11.058,3.293,17.097,3.293
		c14.606,0,28.508-7.024,37.188-18.788c5.159-6.991,5.915-16.181,1.977-23.983C389.98,268.116,382.007,263.198,373.168,263.198z
		 M376.852,288.837c-5.224,7.079-13.257,11.139-22.039,11.139c-11.783,0-21.852-7.487-25.698-17.952h44.054
		c2.478,0,3.625,1.743,4.003,2.493C377.606,285.38,378.143,287.086,376.852,288.837z"/>
	<path style="fill:#333333;" d="M256.004,360.936c-20.742,0-40.307,9.11-53.674,24.993c-8.299,9.859-10.049,23.299-4.569,35.075
		c5.59,12.013,17.254,19.476,30.439,19.476h46.193v19.106c0,5.199,4.215,9.413,9.414,9.413c5.199,0,9.413-4.215,9.413-9.413v-20.43
		c9.157-2.641,16.815-9.103,21.026-18.152c5.481-11.776,3.73-25.217-4.567-35.076C296.311,370.046,276.747,360.936,256.004,360.936z
		 M256.004,379.763c15.175,0,29.488,6.666,39.272,18.29c1.648,1.958,2.681,4.205,3.091,6.558
		c-12.078-9.166-26.892-14.24-42.367-14.24c-15.471,0-30.281,5.071-42.358,14.233c0.412-2.351,1.443-4.595,3.091-6.552
		C226.516,386.429,240.829,379.763,256.004,379.763z M223.426,420.882c9.11-7.498,20.567-11.684,32.576-11.684
		c12.009,0,23.467,4.187,32.578,11.685c-1.496,0.5-3.096,0.769-4.771,0.769h-55.606
		C226.524,421.653,224.922,421.382,223.426,420.882z"/>
	<path style="fill:#333333;" d="M137.526,159.873c2.409,0,4.818-0.919,6.656-2.758l11.131-11.131l5.304,5.304
		c1.838,1.838,4.247,2.758,6.656,2.758s4.818-0.919,6.656-2.758c3.676-3.676,3.676-9.637,0-13.312l-5.303-5.303l12.447-12.447
		l5.303,5.303c1.838,1.839,4.247,2.758,6.656,2.758c2.409,0,4.818-0.919,6.656-2.758c3.676-3.676,3.676-9.636,0-13.312l-5.303-5.303
		l11.131-11.131c3.676-3.676,3.676-9.637,0-13.312c-3.675-3.676-9.636-3.676-13.312,0l-11.131,11.131l-5.303-5.304
		c-3.675-3.676-9.636-3.676-13.312,0s-3.676,9.636,0,13.312l5.303,5.304l-12.447,12.447l-5.304-5.304
		c-3.676-3.676-9.637-3.676-13.312,0c-3.676,3.676-3.676,9.637,0,13.312l5.304,5.304l-11.131,11.131
		c-3.676,3.676-3.676,9.637,0,13.312C132.707,158.954,135.117,159.873,137.526,159.873z"/>
	<path style="fill:#333333;" d="M129.427,239.922c0,5.199,4.215,9.413,9.413,9.413h89.081c5.199,0,9.413-4.215,9.413-9.413
		s-4.215-9.413-9.413-9.413h-89.081C133.642,230.509,129.427,234.724,129.427,239.922z"/>
	<path style="fill:#333333;" d="M284.087,249.336h89.081c5.199,0,9.413-4.215,9.413-9.413s-4.215-9.413-9.413-9.413h-89.081
		c-5.199,0-9.413,4.215-9.413,9.413S278.889,249.336,284.087,249.336z"/>
	<path style="fill:#333333;" d="M219.651,282.025l6.31,48.575c0.609,4.69,4.605,8.201,9.336,8.201h41.418
		c5.199,0,9.413-4.215,9.413-9.413s-4.215-9.414-9.413-9.414h-33.148l-6.31-48.575c-0.609-4.69-4.605-8.201-9.334-8.201h-33.945
		h-55.135c-8.839,0-16.814,4.918-20.81,12.835c-3.94,7.802-3.182,16.992,1.977,23.982c8.681,11.766,22.584,18.789,37.188,18.789
		c5.981,0,11.694-1.155,16.944-3.233c-6.143,11.079-15.867,21.836-31.268,28.739c-4.744,2.126-6.866,7.696-4.739,12.441
		c1.566,3.494,4.999,5.565,8.595,5.565c1.286,0,2.594-0.265,3.844-0.826c42.88-19.222,51.104-60.443,52.561-79.465L219.651,282.025
		L219.651,282.025z M135.157,288.837c-1.292-1.751-0.756-3.458-0.32-4.319c0.378-0.749,1.526-2.493,4.004-2.493h44.054
		c-3.847,10.465-13.914,17.951-25.698,17.951C148.414,299.977,140.381,295.918,135.157,288.837z"/>
</g>
<g>
</g>
<g>
</g>
<g>
</g>
<g>
</g>
<g>
</g>
<g>
</g>
<g>
</g>
<g>
</g>
<g>
</g>
<g>
</g>
<g>
</g>
<g>
</g>
<g>
</g>
<g>
</g>
<g>
</g>
</svg>
